# xmcd
#
# Track frame offsets: 
#        150
#        17531
#        34198
#        50453
#        65247
#        82617
#        95561
#        107415
#        118084
#        134610
#        149065
#        165136
#        184850
#
# Disc length: 2671 seconds
#
# Revision: 3
# Processed by: cddbd v1.5.2PL0 Copyright (c) Steve Scherf et al.
# Submitted via: ExactAudioCopy v0.99pb5
#
DISCID=ad0a6d0d
DTITLE=Moreland and Arbuckle - 7 Cities
DYEAR=2013
DGENRE=Blues
TTITLE0=Quivira
TTITLE1=Kowtow
TTITLE2=The Devil And Me
TTITLE3=Tall Boogie
TTITLE4=Broken Sunshine
TTITLE5=Red Bricks
TTITLE6=Stranger Than Most
TTITLE7=Road Blind
TTITLE8=Bite Your Tongue
TTITLE9=Everybody Wants To Rule The World
TTITLE10=Waste Away
TTITLE11=Time Ain`t Long
TTITLE12=Modern Boy
EXTD=YEAR: 2013
EXTT0=
EXTT1=
EXTT2=
EXTT3=
EXTT4=
EXTT5=
EXTT6=
EXTT7=
EXTT8=
EXTT9=
EXTT10=
EXTT11=
EXTT12=
PLAYORDER=
